# xmcd
#
# Track frame offsets: 
#        150
#        7147
#        16275
#        31152
#        41271
#        54139
#        64229
#        74337
#        84714
#        94094
#        111134
#        120642
#        128568
#        143859
#        156237
#
# Disc length: 2185 seconds
#
# Revision: 0
# Processed by: cddbd v1.5.2PL0 Copyright (c) Steve Scherf et al.
# Submitted via: ExactAudioCopyFreeDBPlugin 1.0
#
DISCID=c108870f
DTITLE=Warren and Cushman - A Tribute to Fiddlin' Paul Warren
DYEAR=2011
DGENRE=Bluegrass
TTITLE0=Intro by Lance LeRoy
TTITLE1=Wild Horses
TTITLE2=Smiths Rag
TTITLE3=Lonesome Road Blues
TTITLE4=Cattle in the Cane
TTITLE5=Kinsport
TTITLE6=Randy Lynn Rag
TTITLE7=Hop Light Ladies
TTITLE8=Road to Jenkins
TTITLE9=Right at Lyles
TTITLE10=Pretty Polly Ann
TTITLE11=Florida Blues
TTITLE12=The Old Folks
TTITLE13=North Carolina Breakdown
TTITLE14=Old Joe
EXTD=
EXTT0=
EXTT1=
EXTT2=
EXTT3=
EXTT4=
EXTT5=
EXTT6=
EXTT7=
EXTT8=
EXTT9=
EXTT10=
EXTT11=
EXTT12=
EXTT13=
EXTT14=
PLAYORDER=
